<?xml version="1.0" encoding="utf-8"?>
<!-- Generator: Adobe Illustrator 22.0.0, SVG Export Plug-In . SVG Version: 6.00 Build 0)  -->
<svg version="1.1" id="Layer_1" xmlns="http://www.w3.org/2000/svg" xmlns:xlink="http://www.w3.org/1999/xlink" x="0px" y="0px"
	 viewBox="0 0 91.1 90.9" style="enable-background:new 0 0 91.1 90.9;" xml:space="preserve">
<g>
	<path d="M45.6,0.9C21,0.9,1.1,20.8,1.1,45.4c0,24.6,19.9,44.5,44.5,44.5C70.1,89.9,90,69.9,90,45.4C90,20.8,70.1,0.9,45.6,0.9z
		 M69.6,29.1c-1.8,0-3.1,0.3-3.9,0.7c-0.7,0.5-1.2,1.1-1.3,2c-0.1,0.9-0.2,2.4-0.2,4.7v23.6c0,1.2,0.2,2.1,0.5,2.7
		c0.3,0.6,0.8,1.1,1.5,1.3c0.7,0.2,1.8,0.4,3.4,0.5v1.5H52v-1.5c1.7,0,3-0.2,3.8-0.7c0.8-0.4,1.2-1,1.4-1.7c0.1-0.7,0.2-1.9,0.2-3.5
		V32.5L43.9,66.1h-1.6L28.9,33.5v22.4c0,2.5,0.5,4.5,1.4,5.9c1,1.4,2.5,2.4,4.8,2.9v1.5H21.3v-1.5c1.9-0.2,3.4-1,4.5-2.3
		c1.1-1.3,1.6-3.2,1.6-5.6V31.5c-0.7-0.8-1.6-1.4-2.7-1.8c-1-0.4-2.2-0.6-3.4-0.5v-1.5h12.5l12.2,29.2l11.9-29.2h11.8V29.1z"/>
</g>
</svg>
