<svg version="1.1" xmlns="http://www.w3.org/2000/svg">
  <symbol id="with-text" viewBox="0 0 2000 2000">
      <path fill="#171716" d="M945.759 807.423l5.678 2.89-.244 6.511-47.01 27.17-5.434-9.4 47.01-27.171M745.297 922.865l5.414 9.412 49.728-28.604-5.414-9.414-49.728 28.606M823.476 878.277l5.455 9.39 46.952-27.269-5.455-9.393-46.952 27.272M1054.44 807.423l-5.68 2.89.25 6.511 47.01 27.17 5.43-9.4-47.01-27.171M1254.9 922.865l-5.41 9.412-49.73-28.604 5.41-9.414 49.73 28.606M1176.72 878.277l-5.45 9.39-46.96-27.269 5.46-9.393 46.95 27.272M993.985 636.773h10.855v-54.295h-10.855zM1004.84 723.648l-5.341 2.172-5.514-2.172v-54.297h10.855v54.297M993.985 549.901h10.855v-57.367h-10.855z"/>
      <path d="M775.719 625.153L1000.1 754.7l224.38-129.547-205.55-118.679-18.76-10.933-37.069 21.425-2.574 1.486c-61.603 35.569-123.205 71.134-184.808 106.701zm236.411-178.049l272.36 157.245 9.11 5.264 2.92 1.688v342.135l-2.92 1.688-9.11 5.264-206.27 119.082-8.75 5.05v-55.44l2.92-1.68 149.09-86.083v.002l26.95-15.535-.04-26.976V666.69l-224.22 129.45v372.87l-2.95 1.7-9.11 5.26-9.11 5.27-2.9 1.67-2.894-1.67-9.115-5.27-9.117-5.26-2.941-1.7V796.14L751.815 666.69v252.821l.058-.035.027 6.42 17.486 10.031 158.428 91.473 2.918 1.68v55.43l-78.818-45.5h-.022l-136.179-78.622-9.114-5.264-2.918-1.688V611.301l2.918-1.688 9.114-5.264c90.786-52.414 181.569-104.828 272.355-157.245h.023l9.115-5.262 2.894-1.668 2.9 1.668 9.11 5.262h.02zM1406.6 1408.62c-7.34-.98-14.46-.98-21.3 0v-.01c-14.64 2.3-26.73 9.35-35.1 19.9-8.35 10.53-13.1 24.65-13.1 41.16 0 19.66 6.31 35.74 16.73 46.97 10.79 11.62 26.1 18.14 43.52 18.14 16.86 0 32.18-6.43 43-18.22 10.18-11.1 16.47-27.02 16.47-46.89 0-15.69-5.15-29.77-14.01-40.51-8.82-10.69-21.37-18.13-36.21-20.54zm52.08 124.5c-15.81 16.81-37.88 26.25-61.33 26.25-24.64 0-46.79-9.06-62.51-25.54-14.8-15.55-23.87-37.65-23.87-64.93 0-21.15 7.24-40.75 19.89-55.82 12.37-14.74 29.89-25.16 50.86-28.45l.07-.02c4.87-.65 9.6-.92 14.23-.89 4.65.03 9.19.38 13.73.89l.16.02c20.81 3.24 39.26 13.65 52.36 28.8 12.72 14.73 20.43 33.95 20.43 55.47 0 26.61-9.31 48.6-24.02 64.22zM1716.27 1393.97c1.71-4.11 5.56-7.35 11.51-7.35h132.55c6.1 0 10.06 3.22 11.83 7.33h.02a12.56 12.56 0 0 1 1.02 4.97c0 1.69-.34 3.4-1.02 4.97h-.02c-1.77 4.1-5.73 7.32-11.83 7.32h-53.6c.01 27 .07 46.53.11 66 .06 26.31.14 54.22.14 69.48 0 3.9-1.52 6.96-3.74 9.12-2.63 2.57-6.26 3.82-9.45 3.82-3.21 0-6.67-1.27-9.15-3.83-2.1-2.17-3.52-5.21-3.52-9.11v-135.48h-53.34c-5.93 0-9.8-3.24-11.49-7.36h-.02c-.65-1.57-.98-3.28-.98-4.94 0-1.66.33-3.36.98-4.94M1611.7 1410.7h-48.22v65.73h48.22v.02l2.71-.04c14.63-.38 25.14-4 31.9-9.59 6.46-5.36 9.52-12.67 9.52-20.74h.02l-.02-.92v-.02c-.12-9.75-4.43-18.56-12.25-24.78-7.52-5.98-18.34-9.66-31.88-9.66zm47.09 143.7l-50.64-54.91h-44.67v46.17c0 5.95-3.44 9.74-7.81 11.41h-.02c-1.58.6-3.33.91-5.03.92l-.01.01c-1.67 0-3.4-.3-5.03-.91h-.01c-4.33-1.64-7.72-5.37-7.72-11.17v-146.88c0-3.66 1.37-6.76 3.7-8.98l.01-.02c2.31-2.17 5.51-3.42 9.23-3.42h60.64c21.9 0 38.79 5.99 50.52 15.64 13.1 10.8 19.74 26.14 19.74 42.85 0 14.15-4.04 26.37-12.55 35.71-6.91 7.58-16.77 13.2-29.77 16.34l37.2 40.18.01-.01c4.45 4.46 5.09 9.38 3.56 13.38-.64 1.66-1.65 3.15-2.93 4.37a13.277 13.277 0 0 1-4.42 2.74c-4.34 1.63-9.7 1.01-13.93-3.35l-.07-.07zM1199.63 1410.19h-43.35v74.69h42.33v.01l2.16-.03c14.94-.39 25.52-4.93 32.3-11.51 6.62-6.42 9.68-14.91 9.68-23.38h.02l-.02-.97v-.02c-.11-10.22-4.5-20.54-12.67-27.94-7.23-6.56-17.49-10.85-30.45-10.85zm49.11 82.52c-11.44 9.74-28.07 15.74-50.13 15.74h-42.33v37.73c0 5.91-3.38 9.67-7.67 11.32h-.02c-1.61.6-3.32.92-4.99.92-1.67 0-3.4-.32-5-.92-4.3-1.63-7.69-5.34-7.69-11.07v-147.39c0-3.62 1.46-6.69 3.78-8.89l.01.02c2.37-2.26 5.64-3.55 9.15-3.55h55.53c21.39 0 37.61 6.65 48.9 16.87 13.19 11.94 19.56 28.72 19.56 45.45 0 17.17-6.23 32.8-19.1 43.77zM796.576 1408.62c-7.331-.98-14.452-.98-21.302 0v-.01c-14.64 2.3-26.72 9.34-35.101 19.9-8.348 10.53-13.093 24.65-13.093 41.16 0 19.66 6.3 35.74 16.727 46.97 10.786 11.62 26.099 18.14 43.512 18.14 16.869 0 32.188-6.43 43.008-18.22 10.18-11.1 16.474-27.02 16.474-46.89 0-15.69-5.156-29.77-14.011-40.51-8.822-10.69-21.376-18.13-36.214-20.54zm52.082 124.5c-15.81 16.81-37.883 26.25-61.339 26.25-24.633 0-46.785-9.06-62.507-25.54-14.797-15.55-23.865-37.65-23.865-64.93 0-21.15 7.244-40.75 19.888-55.82 12.365-14.74 29.895-25.16 50.861-28.45l.075-.02c4.861-.65 9.584-.92 14.232-.89 4.641.03 9.183.38 13.724.89l.156.02c20.82 3.24 39.266 13.65 52.36 28.8 12.726 14.73 20.435 33.95 20.435 55.47 0 26.61-9.313 48.6-24.02 64.22zM1045.04 1514.27l-1.79-26.99-.02-.21v-90.58c0-5.63 3.62-9.29 8.21-10.87 1.6-.55 3.37-.83 5.09-.84l.02-.02c1.7 0 3.45.28 5.09.84 4.49 1.55 7.98 5.15 7.98 10.89v146.88c0 4.08-1.43 7.33-3.67 9.7-2.03 2.15-4.71 3.54-7.58 4.2h-.01c-2.76.62-5.75.58-8.53-.12-3.84-.96-7.36-3.22-9.53-6.67l-88.763-118.9 1.384 23.82.016.19v90.33c0 6.19-3.519 10.21-7.988 11.98h-.032a14.5 14.5 0 0 1-5.229.99v-.02c-1.768.01-3.594-.31-5.247-.98-4.427-1.75-7.889-5.73-7.889-11.97V1399.3c0-4.13 1.252-7.46 3.265-9.92a13.043 13.043 0 0 1 6.711-4.33c2.496-.68 5.246-.63 7.865.11 3.43.98 6.727 3.23 9.126 6.7h.007l91.514 122.41M678.017 1549.55l.007.01c-1.833 3.93-5.916 7-12.161 7H560.947c-4.426 0-7.676-1.19-9.919-3.48-2.251-2.3-3.273-5.49-3.273-9.46v-146.87c0-5.99 3.437-9.86 7.825-11.55h.008c1.62-.63 3.388-.95 5.105-.95 1.711 0 3.471.32 5.116.95 4.386 1.69 7.824 5.56 7.824 11.55v135.97h92.23c6.253 0 10.328 3.08 12.161 7l-.007.01a11.58 11.58 0 0 1 1.105 4.91c0 1.65-.376 3.36-1.105 4.91M476.081 1484.14h-92.738v48.58h97.599c5.581 0 9.411 3.3 11.114 7.42h.008c.622 1.5.957 3.16.974 4.76.016 1.65-.278 3.32-.909 4.81-1.62 3.87-5.286 6.85-11.187 6.85H373.219c-4.421 0-8.135-1.59-10.786-4.13l-.017-.01c-2.832-2.72-4.444-6.5-4.444-10.59v-140.48c0-3.98 1.635-7.72 4.517-10.42v-.01c2.652-2.47 6.344-4.05 10.73-4.05h107.976c5.54 0 9.06 3.01 10.623 6.86v.02c.581 1.45.868 3.06.86 4.62h.016a12.5 12.5 0 0 1-.916 4.66c-1.613 3.99-5.262 7.16-10.836 7.16h-97.599v50.64h92.738c5.368 0 8.903 3.14 10.459 7.14l.009-.01c.563 1.43.851 3.04.858 4.61.01 1.59-.278 3.18-.835 4.62-1.53 3.9-5.008 6.95-10.491 6.95M150.797 1392.1l59.497 92.64 59.021-92.67c2.187-3.43 5.108-5.57 8.111-6.5h.016c2.317-.71 4.715-.73 6.908-.11 2.218.62 4.255 1.91 5.819 3.76h-.009c1.948 2.3 3.192 5.48 3.192 9.32v147.38c0 6.06-3.396 9.97-7.709 11.7-1.628.66-3.381.98-5.099.98-1.719 0-3.477-.32-5.106-.98-4.304-1.73-7.7-5.64-7.7-11.7v-104.59l-45.741 71.53c-1.489 2.67-3.584 4.62-5.901 5.82a13.118 13.118 0 0 1-6.12 1.46h-.009a12.766 12.766 0 0 1-6.097-1.59c-2.219-1.22-4.166-3.14-5.524-5.71l-45.732-71.27v104.35c0 6.06-3.396 9.97-7.709 11.7a13.62 13.62 0 0 1-5.098.98c-1.72 0-3.478-.32-5.106-.98-4.305-1.73-7.701-5.64-7.701-11.7v-147.38c0-4.15 1.415-7.47 3.584-9.8a11.812 11.812 0 0 1 5.777-3.44v.01a12.1 12.1 0 0 1 6.661.21c2.989.96 5.82 3.13 7.775 6.58" fill="#171716"/>
  </symbol>
  <symbol id="default" viewBox="0 0 1028 1288">
    <defs>
      <path id="a" d="M.06.41h1027.67V1288H.06z"/>
    </defs>
    <g fill="none" fill-rule="evenodd">
      <path fill="#171716" d="M419.661 637.065l9.844 5.011-.422 11.286-81.497 47.101-9.42-16.295 81.495-47.103M72.145 837.192l9.385 16.317 86.209-49.587-9.387-16.321-86.207 49.591M207.674 759.895l9.456 16.28 81.395-47.273-9.455-16.284-81.396 47.277M608.067 637.065l-9.842 5.011.422 11.286 81.498 47.101 9.418-16.295-81.496-47.103M955.585 837.192l-9.38 16.317-86.217-49.587 9.389-16.321 86.208 49.591M820.059 759.895l-9.461 16.28-81.397-47.273 9.46-16.284 81.398 47.277M503.266 341.23h18.818v-94.125h-18.818zM522.084 491.835l-9.261 3.765-9.557-3.765v-94.128h18.818v94.128"/>
      <mask id="b" fill="#fff">
          <use xlink:href="#a"/>
      </mask>
      <path fill="#171716" mask="url(#b)" d="M503.266 190.631h18.818V91.18h-18.818z"/>
      <path d="M124.884 321.086l388.985 224.579 388.974-224.579-356.339-205.74-32.525-18.953-64.254 37.143-4.462 2.576c-106.794 61.662-213.586 123.315-320.379 184.974zm409.84-308.662l487.956 281.723 5.05 2.925v593.117l-5.05 2.926-373.388 215.575-15.17 8.75v-96.12l5.062-2.91 258.457-149.23v.003l46.728-26.93-.081-46.766V393.093L555.591 617.505v646.405l-5.104 2.95-15.805 9.12-20.813 12.02-5.02-2.9-31.607-18.24-5.098-2.95V617.505l-388.7-224.412v438.286l.101-.062.048 11.131 30.312 17.388 274.647 158.574 5.06 2.92v96.09l-15.133-8.73-121.506-70.15h-.038L20.859 902.241l-15.8-9.126L0 890.189V297.072l5.059-2.925 15.8-9.126A31980391.81 31980391.81 0 0 0 493.007 12.424h.04l15.802-9.122 5.02-2.892 5.021 2.892 15.792 9.122h.042z" fill="#171716" mask="url(#b)"/>
    </g>
  </symbol>
  <symbol id="with-text-horizontal" viewBox="0 0 3650 813">
    <defs>
      <path id="a" d="M.06.539h648.432V813H.06z"/>
    </defs>
    <g fill="none" fill-rule="evenodd">
      <path fill="#171716" d="M264.804 402.265l6.212 3.162-.267 7.122-51.424 29.72-5.944-10.282 51.423-29.722M45.523 528.545l5.922 10.296 54.397-31.289-5.923-10.299-54.396 31.292M131.042 479.771l5.966 10.272 51.36-29.829-5.966-10.275-51.36 29.832M383.688 402.265l-6.211 3.162.267 7.122 51.425 29.72 5.942-10.282-51.423-29.722M602.97 528.545l-5.919 10.296-54.403-31.289 5.925-10.299 54.397 31.292M517.453 479.771l-5.969 10.272-51.361-29.829 5.969-10.275 51.361 29.832M317.558 215.595h11.875v-59.393h-11.875zM329.433 310.626l-5.844 2.376-6.031-2.376v-59.395h11.875v59.395"/>
      <mask id="b" fill="#fff">
          <use xlink:href="#a"/>
      </mask>
      <path fill="#171716" mask="url(#b)" d="M317.558 120.567h11.875V57.814h-11.875z"/>
      <path d="M78.801 202.884l245.448 141.709L569.69 202.884 344.841 73.063l-20.523-11.959-40.544 23.437-2.815 1.625c-67.387 38.909-134.772 77.812-202.158 116.718zM337.408 8.12l307.897 177.765 3.187 1.846v374.255l-3.187 1.846-9.972 5.759-225.632 130.266-9.573 5.523v-60.65l3.194-1.84 163.085-94.161v.002l29.486-16.993-.051-29.509V248.32L350.576 389.923v407.879l-3.221 1.859-9.973 5.754-9.965 5.759-3.168 1.826-3.167-1.826-9.972-5.759-9.972-5.754-3.217-1.859V389.923L52.653 248.32v276.557l.063-.039.03 7.023 19.128 10.972L245.175 642.89l3.192 1.846v60.632l-86.218-49.774h-.024L13.162 569.591l-9.97-5.759L0 561.986V187.731l3.192-1.846 9.97-5.758C112.471 122.792 211.777 65.457 311.086 8.12h.024l9.972-5.756 3.167-1.825 3.168 1.825 9.965 5.756h.026z" fill="#171716" mask="url(#b)"/>
      <path d="M2905 257.206c-11.72-1.56-23.07-1.56-34 0v-.018c-23.36 3.677-42.65 14.92-56.01 31.76-13.33 16.797-20.9 39.328-20.9 65.676 0 31.373 10.06 57.042 26.7 74.962 17.21 18.53 41.64 28.938 69.44 28.938 26.91 0 51.36-10.258 68.62-29.078 16.24-17.715 26.29-43.114 26.29-74.822 0-25.028-8.23-47.507-22.36-64.645-14.07-17.054-34.11-28.921-57.78-32.773zm83.1 198.672c-25.22 26.824-60.45 41.89-97.87 41.89-39.31 0-74.67-14.456-99.75-40.765-23.61-24.8-38.09-60.079-38.09-103.604 0-33.749 11.56-65.026 31.74-89.08 19.73-23.52 47.71-40.146 81.16-45.392l.12-.027a161.5 161.5 0 0 1 22.71-1.421c7.41.046 14.66.595 21.9 1.413l.25.035c33.22 5.17 62.66 21.782 83.56 45.957 20.3 23.509 32.6 54.182 32.6 88.515 0 42.457-14.86 77.561-38.33 102.479zM3399.16 233.837c2.72-6.564 8.85-11.735 18.35-11.735h211.52c9.74 0 16.06 5.145 18.89 11.691h.02a20.179 20.179 0 0 1 1.63 7.935c0 2.695-.55 5.433-1.63 7.938h-.02c-2.83 6.53-9.15 11.68-18.89 11.68h-85.52c.01 43.079.1 74.237.17 105.321.1 41.982.23 86.51.23 110.861 0 6.231-2.43 11.105-5.98 14.558-4.19 4.096-9.99 6.09-15.07 6.09-5.13 0-10.65-2.025-14.62-6.099-3.34-3.465-5.61-8.318-5.61-14.549V261.346h-85.12c-9.46 0-15.62-5.172-18.34-11.753h-.01a20.727 20.727 0 0 1-1.58-7.882c0-2.648.54-5.365 1.58-7.874M3232.27 260.528h-76.94v104.894h76.94v.03l4.33-.066c23.35-.614 40.12-6.389 50.91-15.301 10.31-8.56 15.19-20.221 15.19-33.107h.03l-.03-1.467v-.029c-.18-15.56-7.07-29.615-19.55-39.54-12-9.544-29.26-15.414-50.88-15.414zm75.16 229.313l-80.82-87.626h-71.28v73.679c0 9.482-5.49 15.542-12.46 18.207h-.03c-2.53.959-5.31 1.448-8.03 1.457l-.02.03c-2.65 0-5.42-.494-8.01-1.457h-.02c-6.92-2.621-12.32-8.571-12.32-17.82V241.925c0-5.841 2.18-10.797 5.9-14.334l.01-.03c3.69-3.464 8.79-5.459 14.74-5.459h96.77c34.94 0 61.89 9.555 80.61 24.956 20.91 17.24 31.5 41.706 31.5 68.371 0 22.587-6.44 42.092-20.03 56.986-11.03 12.095-26.76 21.074-47.5 26.077l59.35 64.126.02-.019c7.11 7.122 8.13 14.959 5.68 21.354-1.01 2.639-2.63 5.015-4.68 6.963a21.04 21.04 0 0 1-7.04 4.374c-6.93 2.598-15.48 1.614-22.24-5.337l-.1-.112zM2574.72 259.712h-69.17v119.181h67.54v.029l3.45-.056c23.84-.614 40.73-7.873 51.55-18.365 10.56-10.248 15.45-23.794 15.45-37.313h.02l-.02-1.548v-.029c-.19-16.313-7.19-32.774-20.23-44.582-11.54-10.466-27.9-17.317-48.59-17.317zm78.37 131.678c-18.25 15.551-44.79 25.124-80 25.124h-67.54v60.206c0 9.425-5.4 15.43-12.25 18.059h-.03a22.74 22.74 0 0 1-7.96 1.466c-2.67 0-5.43-.502-7.97-1.466-6.87-2.599-12.27-8.523-12.27-17.659V241.925c0-5.785 2.32-10.684 6.02-14.188l.02.022c3.79-3.593 9.01-5.657 14.59-5.657h88.62c34.13 0 60.02 10.613 78.03 26.916 21.05 19.059 31.22 45.827 31.22 72.527 0 27.397-9.94 52.336-30.48 69.845zM1931.55 257.206c-11.7-1.56-23.06-1.56-33.99 0v-.018c-23.37 3.677-42.64 14.901-56.01 31.76-13.33 16.797-20.9 39.328-20.9 65.676 0 31.373 10.06 57.042 26.69 74.962 17.22 18.53 41.65 28.938 69.44 28.938 26.92 0 51.36-10.258 68.63-29.078 16.24-17.715 26.29-43.114 26.29-74.822 0-25.028-8.23-47.507-22.36-64.645-14.08-17.054-34.11-28.921-57.79-32.773zm83.11 198.672c-25.23 26.824-60.45 41.89-97.88 41.89-39.31 0-74.66-14.456-99.75-40.765-23.61-24.8-38.08-60.079-38.08-103.604 0-33.749 11.56-65.026 31.74-89.08 19.73-23.52 47.7-40.146 81.16-45.392l.12-.027a161.131 161.131 0 0 1 22.71-1.421c7.4.046 14.65.595 21.9 1.413l.25.035c33.22 5.17 62.66 21.782 83.55 45.957 20.31 23.509 32.61 54.182 32.61 88.515 0 42.457-14.86 77.561-38.33 102.479zM2328.03 425.799l-2.85-43.071-.03-.334V237.848c0-8.986 5.78-14.817 13.1-17.341 2.56-.875 5.37-1.328 8.13-1.348l.03-.027c2.7 0 5.49.448 8.12 1.346 7.16 2.471 12.73 8.208 12.73 17.37v234.38c0 6.515-2.28 11.699-5.86 15.485-3.23 3.426-7.52 5.654-12.1 6.703h-.01c-4.4.995-9.18.927-13.61-.186-6.13-1.54-11.75-5.142-15.2-10.656l-141.65-189.722 2.21 38.009.02.306v144.144c0 9.872-5.61 16.287-12.75 19.11h-.05a23.246 23.246 0 0 1-8.34 1.577v-.029c-2.82.019-5.73-.501-8.37-1.558-7.07-2.797-12.59-9.155-12.59-19.1V242.342c0-6.592 2-11.91 5.21-15.829 2.83-3.465 6.59-5.794 10.71-6.916 3.98-1.088 8.37-1.014 12.55.175 5.47 1.57 10.73 5.154 14.56 10.696l.01-.01 146.03 195.341M1742.36 482.097l.01.017c-2.92 6.267-9.44 11.161-19.4 11.161h-167.42c-7.07 0-12.25-1.895-15.83-5.552-3.59-3.667-5.23-8.747-5.23-15.096V238.259c0-9.555 5.49-15.73 12.49-18.421l.01-.009a22.998 22.998 0 0 1 8.15-1.504c2.73 0 5.54.502 8.16 1.513 7 2.691 12.49 8.866 12.49 18.421v216.986h147.18c9.97 0 16.48 4.904 19.4 11.17l-.01.01a18.598 18.598 0 0 1 1.76 7.835c0 2.628-.6 5.356-1.76 7.837M1420.12 377.714h-147.99v77.531h155.75c8.9 0 15.02 5.266 17.73 11.837h.02c.99 2.39 1.52 5.043 1.55 7.596.02 2.629-.44 5.291-1.45 7.679-2.59 6.165-8.44 10.918-17.85 10.918h-171.9c-7.06 0-12.98-2.536-17.21-6.584l-.03-.017c-4.52-4.337-7.09-10.363-7.09-16.905V245.61c0-6.35 2.61-12.328 7.21-16.638v-.017c4.23-3.929 10.12-6.452 17.12-6.452h172.3c8.84 0 14.46 4.8 16.95 10.946v.036c.93 2.312 1.39 4.874 1.38 7.37h.02c0 2.51-.51 5.08-1.46 7.437-2.57 6.361-8.4 11.42-17.29 11.42h-155.75v80.802h147.99c8.57 0 14.21 5.021 16.69 11.399l.02-.018c.89 2.284 1.35 4.856 1.36 7.364.02 2.526-.44 5.068-1.33 7.371-2.44 6.228-7.99 11.084-16.74 11.084M901.049 230.84l94.944 147.841 94.187-147.878c3.48-5.478 8.15-8.886 12.94-10.373h.02c3.7-1.139 7.53-1.168 11.03-.183 3.54.992 6.79 3.046 9.28 5.996l-.01.011c3.11 3.667 5.09 8.734 5.09 14.863v235.194c0 9.667-5.42 15.906-12.3 18.663a21.86 21.86 0 0 1-8.14 1.569c-2.74 0-5.55-.521-8.15-1.569-6.86-2.757-12.28-8.996-12.28-18.663V309.412l-72.99 114.13c-2.38 4.259-5.72 7.381-9.42 9.293a20.886 20.886 0 0 1-9.765 2.329h-.015a20.376 20.376 0 0 1-9.729-2.532c-3.54-1.951-6.648-5.015-8.816-9.109L903.95 309.781v166.53c0 9.667-5.419 15.906-12.302 18.663a21.917 21.917 0 0 1-16.284 0c-6.869-2.757-12.288-8.996-12.288-18.663V241.117c0-6.61 2.258-11.923 5.718-15.636a18.845 18.845 0 0 1 9.22-5.485v.018c3.409-.882 7.116-.791 10.63.336 4.768 1.529 9.286 4.994 12.405 10.49" fill="#171716"/>
    </g>
  </symbol>
</svg>
