<svg version="1.1" xmlns="http://www.w3.org/2000/svg">
  <symbol id="with-text" viewBox="0 0 2000 2000">
      <path fill="#171716" d="M945.759 807.423l5.678 2.89-.244 6.511-47.01 27.17-5.434-9.4 47.01-27.171M745.297 922.865l5.414 9.412 49.728-28.604-5.414-9.414-49.728 28.606M823.476 878.277l5.455 9.39 46.952-27.269-5.455-9.393-46.952 27.272M1054.44 807.423l-5.68 2.89.25 6.511 47.01 27.17 5.43-9.4-47.01-27.171M1254.9 922.865l-5.41 9.412-49.73-28.604 5.41-9.414 49.73 28.606M1176.72 878.277l-5.45 9.39-46.96-27.269 5.46-9.393 46.95 27.272M993.985 636.773h10.855v-54.295h-10.855zM1004.84 723.648l-5.341 2.172-5.514-2.172v-54.297h10.855v54.297M993.985 549.901h10.855v-57.367h-10.855z"/>
      <path d="M775.719 625.153L1000.1 754.7l224.38-129.547-205.55-118.679-18.76-10.933-37.069 21.425-2.574 1.486c-61.603 35.569-123.205 71.134-184.808 106.701zm236.411-178.049l272.36 157.245 9.11 5.264 2.92 1.688v342.135l-2.92 1.688-9.11 5.264-206.27 119.082-8.75 5.05v-55.44l2.92-1.68 149.09-86.083v.002l26.95-15.535-.04-26.976V666.69l-224.22 129.45v372.87l-2.95 1.7-9.11 5.26-9.11 5.27-2.9 1.67-2.894-1.67-9.115-5.27-9.117-5.26-2.941-1.7V796.14L751.815 666.69v252.821l.058-.035.027 6.42 17.486 10.031 158.428 91.473 2.918 1.68v55.43l-78.818-45.5h-.022l-136.179-78.622-9.114-5.264-2.918-1.688V611.301l2.918-1.688 9.114-5.264c90.786-52.414 181.569-104.828 272.355-157.245h.023l9.115-5.262 2.894-1.668 2.9 1.668 9.11 5.262h.02zM1406.6 1408.62c-7.34-.98-14.46-.98-21.3 0v-.01c-14.64 2.3-26.73 9.35-35.1 19.9-8.35 10.53-13.1 24.65-13.1 41.16 0 19.66 6.31 35.74 16.73 46.97 10.79 11.62 26.1 18.14 43.52 18.14 16.86 0 32.18-6.43 43-18.22 10.18-11.1 16.47-27.02 16.47-46.89 0-15.69-5.15-29.77-14.01-40.51-8.82-10.69-21.37-18.13-36.21-20.54zm52.08 124.5c-15.81 16.81-37.88 26.25-61.33 26.25-24.64 0-46.79-9.06-62.51-25.54-14.8-15.55-23.87-37.65-23.87-64.93 0-21.15 7.24-40.75 19.89-55.82 12.37-14.74 29.89-25.16 50.86-28.45l.07-.02c4.87-.65 9.6-.92 14.23-.89 4.65.03 9.19.38 13.73.89l.16.02c20.81 3.24 39.26 13.65 52.36 28.8 12.72 14.73 20.43 33.95 20.43 55.47 0 26.61-9.31 48.6-24.02 64.22zM1716.27 1393.97c1.71-4.11 5.56-7.35 11.51-7.35h132.55c6.1 0 10.06 3.22 11.83 7.33h.02a12.56 12.56 0 0 1 1.02 4.97c0 1.69-.34 3.4-1.02 4.97h-.02c-1.77 4.1-5.73 7.32-11.83 7.32h-53.6c.01 27 .07 46.53.11 66 .06 26.31.14 54.22.14 69.48 0 3.9-1.52 6.96-3.74 9.12-2.63 2.57-6.26 3.82-9.45 3.82-3.21 0-6.67-1.27-9.15-3.83-2.1-2.17-3.52-5.21-3.52-9.11v-135.48h-53.34c-5.93 0-9.8-3.24-11.49-7.36h-.02c-.65-1.57-.98-3.28-.98-4.94 0-1.66.33-3.36.98-4.94M1611.7 1410.7h-48.22v65.73h48.22v.02l2.71-.04c14.63-.38 25.14-4 31.9-9.59 6.46-5.36 9.52-12.67 9.52-20.74h.02l-.02-.92v-.02c-.12-9.75-4.43-18.56-12.25-24.78-7.52-5.98-18.34-9.66-31.88-9.66zm47.09 143.7l-50.64-54.91h-44.67v46.17c0 5.95-3.44 9.74-7.81 11.41h-.02c-1.58.6-3.33.91-5.03.92l-.01.01c-1.67 0-3.4-.3-5.03-.91h-.01c-4.33-1.64-7.72-5.37-7.72-11.17v-146.88c0-3.66 1.37-6.76 3.7-8.98l.01-.02c2.31-2.17 5.51-3.42 9.23-3.42h60.64c21.9 0 38.79 5.99 50.52 15.64 13.1 10.8 19.74 26.14 19.74 42.85 0 14.15-4.04 26.37-12.55 35.71-6.91 7.58-16.77 13.2-29.77 16.34l37.2 40.18.01-.01c4.45 4.46 5.09 9.38 3.56 13.38-.64 1.66-1.65 3.15-2.93 4.37a13.277 13.277 0 0 1-4.42 2.74c-4.34 1.63-9.7 1.01-13.93-3.35l-.07-.07zM1199.63 1410.19h-43.35v74.69h42.33v.01l2.16-.03c14.94-.39 25.52-4.93 32.3-11.51 6.62-6.42 9.68-14.91 9.68-23.38h.02l-.02-.97v-.02c-.11-10.22-4.5-20.54-12.67-27.94-7.23-6.56-17.49-10.85-30.45-10.85zm49.11 82.52c-11.44 9.74-28.07 15.74-50.13 15.74h-42.33v37.73c0 5.91-3.38 9.67-7.67 11.32h-.02c-1.61.6-3.32.92-4.99.92-1.67 0-3.4-.32-5-.92-4.3-1.63-7.69-5.34-7.69-11.07v-147.39c0-3.62 1.46-6.69 3.78-8.89l.01.02c2.37-2.26 5.64-3.55 9.15-3.55h55.53c21.39 0 37.61 6.65 48.9 16.87 13.19 11.94 19.56 28.72 19.56 45.45 0 17.17-6.23 32.8-19.1 43.77zM796.576 1408.62c-7.331-.98-14.452-.98-21.302 0v-.01c-14.64 2.3-26.72 9.34-35.101 19.9-8.348 10.53-13.093 24.65-13.093 41.16 0 19.66 6.3 35.74 16.727 46.97 10.786 11.62 26.099 18.14 43.512 18.14 16.869 0 32.188-6.43 43.008-18.22 10.18-11.1 16.474-27.02 16.474-46.89 0-15.69-5.156-29.77-14.011-40.51-8.822-10.69-21.376-18.13-36.214-20.54zm52.082 124.5c-15.81 16.81-37.883 26.25-61.339 26.25-24.633 0-46.785-9.06-62.507-25.54-14.797-15.55-23.865-37.65-23.865-64.93 0-21.15 7.244-40.75 19.888-55.82 12.365-14.74 29.895-25.16 50.861-28.45l.075-.02c4.861-.65 9.584-.92 14.232-.89 4.641.03 9.183.38 13.724.89l.156.02c20.82 3.24 39.266 13.65 52.36 28.8 12.726 14.73 20.435 33.95 20.435 55.47 0 26.61-9.313 48.6-24.02 64.22zM1045.04 1514.27l-1.79-26.99-.02-.21v-90.58c0-5.63 3.62-9.29 8.21-10.87 1.6-.55 3.37-.83 5.09-.84l.02-.02c1.7 0 3.45.28 5.09.84 4.49 1.55 7.98 5.15 7.98 10.89v146.88c0 4.08-1.43 7.33-3.67 9.7-2.03 2.15-4.71 3.54-7.58 4.2h-.01c-2.76.62-5.75.58-8.53-.12-3.84-.96-7.36-3.22-9.53-6.67l-88.763-118.9 1.384 23.82.016.19v90.33c0 6.19-3.519 10.21-7.988 11.98h-.032a14.5 14.5 0 0 1-5.229.99v-.02c-1.768.01-3.594-.31-5.247-.98-4.427-1.75-7.889-5.73-7.889-11.97V1399.3c0-4.13 1.252-7.46 3.265-9.92a13.043 13.043 0 0 1 6.711-4.33c2.496-.68 5.246-.63 7.865.11 3.43.98 6.727 3.23 9.126 6.7h.007l91.514 122.41M678.017 1549.55l.007.01c-1.833 3.93-5.916 7-12.161 7H560.947c-4.426 0-7.676-1.19-9.919-3.48-2.251-2.3-3.273-5.49-3.273-9.46v-146.87c0-5.99 3.437-9.86 7.825-11.55h.008c1.62-.63 3.388-.95 5.105-.95 1.711 0 3.471.32 5.116.95 4.386 1.69 7.824 5.56 7.824 11.55v135.97h92.23c6.253 0 10.328 3.08 12.161 7l-.007.01a11.58 11.58 0 0 1 1.105 4.91c0 1.65-.376 3.36-1.105 4.91M476.081 1484.14h-92.738v48.58h97.599c5.581 0 9.411 3.3 11.114 7.42h.008c.622 1.5.957 3.16.974 4.76.016 1.65-.278 3.32-.909 4.81-1.62 3.87-5.286 6.85-11.187 6.85H373.219c-4.421 0-8.135-1.59-10.786-4.13l-.017-.01c-2.832-2.72-4.444-6.5-4.444-10.59v-140.48c0-3.98 1.635-7.72 4.517-10.42v-.01c2.652-2.47 6.344-4.05 10.73-4.05h107.976c5.54 0 9.06 3.01 10.623 6.86v.02c.581 1.45.868 3.06.86 4.62h.016a12.5 12.5 0 0 1-.916 4.66c-1.613 3.99-5.262 7.16-10.836 7.16h-97.599v50.64h92.738c5.368 0 8.903 3.14 10.459 7.14l.009-.01c.563 1.43.851 3.04.858 4.61.01 1.59-.278 3.18-.835 4.62-1.53 3.9-5.008 6.95-10.491 6.95M150.797 1392.1l59.497 92.64 59.021-92.67c2.187-3.43 5.108-5.57 8.111-6.5h.016c2.317-.71 4.715-.73 6.908-.11 2.218.62 4.255 1.91 5.819 3.76h-.009c1.948 2.3 3.192 5.48 3.192 9.32v147.38c0 6.06-3.396 9.97-7.709 11.7-1.628.66-3.381.98-5.099.98-1.719 0-3.477-.32-5.106-.98-4.304-1.73-7.7-5.64-7.7-11.7v-104.59l-45.741 71.53c-1.489 2.67-3.584 4.62-5.901 5.82a13.118 13.118 0 0 1-6.12 1.46h-.009a12.766 12.766 0 0 1-6.097-1.59c-2.219-1.22-4.166-3.14-5.524-5.71l-45.732-71.27v104.35c0 6.06-3.396 9.97-7.709 11.7a13.62 13.62 0 0 1-5.098.98c-1.72 0-3.478-.32-5.106-.98-4.305-1.73-7.701-5.64-7.701-11.7v-147.38c0-4.15 1.415-7.47 3.584-9.8a11.812 11.812 0 0 1 5.777-3.44v.01a12.1 12.1 0 0 1 6.661.21c2.989.96 5.82 3.13 7.775 6.58" fill="#171716"/>
  </symbol>
  <symbol id="default" viewBox="0 0 1028 1288">
    <defs>
      <path id="a" d="M.06.41h1027.67V1288H.06z"/>
    </defs>
    <g fill="none" fill-rule="evenodd">
      <path fill="#171716" d="M419.661 637.065l9.844 5.011-.422 11.286-81.497 47.101-9.42-16.295 81.495-47.103M72.145 837.192l9.385 16.317 86.209-49.587-9.387-16.321-86.207 49.591M207.674 759.895l9.456 16.28 81.395-47.273-9.455-16.284-81.396 47.277M608.067 637.065l-9.842 5.011.422 11.286 81.498 47.101 9.418-16.295-81.496-47.103M955.585 837.192l-9.38 16.317-86.217-49.587 9.389-16.321 86.208 49.591M820.059 759.895l-9.461 16.28-81.397-47.273 9.46-16.284 81.398 47.277M503.266 341.23h18.818v-94.125h-18.818zM522.084 491.835l-9.261 3.765-9.557-3.765v-94.128h18.818v94.128"/>
      <mask id="b" fill="#fff">
          <use xlink:href="#a"/>
      </mask>
      <path fill="#171716" mask="url(#b)" d="M503.266 190.631h18.818V91.18h-18.818z"/>
      <path d="M124.884 321.086l388.985 224.579 388.974-224.579-356.339-205.74-32.525-18.953-64.254 37.143-4.462 2.576c-106.794 61.662-213.586 123.315-320.379 184.974zm409.84-308.662l487.956 281.723 5.05 2.925v593.117l-5.05 2.926-373.388 215.575-15.17 8.75v-96.12l5.062-2.91 258.457-149.23v.003l46.728-26.93-.081-46.766V393.093L555.591 617.505v646.405l-5.104 2.95-15.805 9.12-20.813 12.02-5.02-2.9-31.607-18.24-5.098-2.95V617.505l-388.7-224.412v438.286l.101-.062.048 11.131 30.312 17.388 274.647 158.574 5.06 2.92v96.09l-15.133-8.73-121.506-70.15h-.038L20.859 902.241l-15.8-9.126L0 890.189V297.072l5.059-2.925 15.8-9.126A31980391.81 31980391.81 0 0 0 493.007 12.424h.04l15.802-9.122 5.02-2.892 5.021 2.892 15.792 9.122h.042z" fill="#171716" mask="url(#b)"/>
    </g>
  </symbol>
</svg>
