<svg version="1.1" xmlns="http://www.w3.org/2000/svg">
  <symbol id="with-text" viewBox="0 0 1200 1200">
    <path d="M181 1018.421L237.458 891H285v5.227h-5.716c-7.617 0-12.611.629-14.969 1.872-2.365 1.259-3.944 3.593-4.746 6.987-.802 3.41-1.194 11.505-1.194 24.3v75.523c0 12.126.304 20.045.906 23.806.617 3.744 2.156 6.525 4.634 8.35 2.469 1.8 7.215 2.716 14.23 2.716H285V1045h-74.056v-5.219h5.484c6.55 0 11.104-.836 13.662-2.501 2.541-1.658 4.185-4.255 4.906-7.768.722-3.53 1.09-11.72 1.09-24.603V906.91L174.715 1045h-5.371l-61.83-138.09v90.159c0 12.349.386 20.763 1.147 25.208.762 4.478 3.119 8.398 7.08 11.76 3.968 3.386 9.524 5.282 16.691 5.744V1045H77v-5.219c6.63-.382 12.018-2.183 16.179-5.385 4.145-3.227 6.678-7.187 7.592-11.872.914-4.692 1.38-13.4 1.38-26.125v-67.013c0-12.261-.37-20.18-1.1-23.742-.713-3.546-2.236-6.015-4.569-7.378-2.325-1.346-7.408-2.04-15.249-2.04H77V891h47.198L181 1018.421M470.502 997.069H476L472.68 1045H344v-5.219h3.207c7.717 0 12.701-1.011 14.952-3.067 2.259-2.04 3.69-4.637 4.3-7.784.611-3.14.917-11.138.917-24.021v-75.523c0-11.735-.33-19.448-.973-23.168-.65-3.705-2.146-6.295-4.47-7.777-2.33-1.481-7.234-2.214-14.726-2.214V891h111.028l3.674 38.386h-5.386c-2.444-10.747-5.442-18.38-8.995-22.874-3.553-4.51-7.774-7.361-12.66-8.525-4.888-1.17-12.766-1.76-23.61-1.76h-21.535v64.63h16.495c7.564 0 12.853-.653 15.868-1.944 3.022-1.282 5.008-3.219 5.964-5.832.957-2.613 1.431-7.72 1.431-15.281h5.386v52.704h-5.386c0-8.573-.731-14.31-2.178-17.218-1.455-2.908-3.57-4.812-6.359-5.68-2.789-.869-7.5-1.307-14.147-1.307h-17.074v36.45c0 18.246 1.182 28.993 3.545 32.196 2.363 3.227 8.746 4.836 19.14 4.836h11.567c8.175 0 14.903-1.027 20.177-3.13 5.265-2.08 10.289-6.359 15.064-12.82 4.774-6.478 8.537-15.4 11.286-26.762M668 999.682L666.86 1045H536v-5.219h4.55c6.583 0 11.15-.836 13.683-2.501 2.534-1.658 4.16-4.255 4.885-7.768.718-3.53 1.076-11.72 1.076-24.603v-75.523c0-12.261-.358-20.18-1.076-23.742-.725-3.546-2.239-6.015-4.542-7.378-2.311-1.346-7.371-2.04-15.165-2.04H536V891h73.953v5.227h-6.821c-7.571 0-12.528.629-14.879 1.872-2.343 1.259-3.92 3.593-4.71 6.987-.796 3.41-1.195 11.505-1.195 24.3v80.646c0 11.122.303 18.093.909 20.898.605 2.796 2.247 4.963 4.94 6.533 2.686 1.546 8.464 2.318 17.325 2.318h11.707c9.46 0 16.488-.836 21.07-2.501 4.582-1.658 8.934-5.299 13.062-10.9 4.135-5.6 7.889-14.5 11.308-26.698H668M750.077 968.772c0 24.811 4.942 43.427 14.851 55.872 9.9 12.438 24.752 18.664 44.553 18.664 17.374 0 31.107-6.226 41.208-18.664 10.084-12.445 15.138-30.981 15.138-55.648 0-23.972-4.974-42.357-14.915-55.121-9.932-12.797-24.352-19.183-43.243-19.183-18.596 0-32.84 6.226-42.74 18.72-9.91 12.469-14.852 30.933-14.852 55.36zm-26.077-.79c0-23.837 7.976-42.947 23.905-57.364C763.85 896.208 783.723 889 807.55 889c24.057 0 44.146 7.129 60.266 21.402C883.944 924.659 892 944.114 892 968.772c0 23.901-7.72 43.244-23.163 58.036C853.395 1041.6 833.075 1049 807.892 1049c-24.512 0-44.625-7.4-60.322-22.192-15.705-14.792-23.57-34.398-23.57-58.826zM1095.073 1049L986.272 904.218v107.19c0 8.887.438 14.744 1.305 17.541.875 2.821 3.35 5.403 7.44 7.744 4.083 2.366 10.203 3.54 18.384 3.54v5.235H956v-5.235c7.337-.52 12.924-1.87 16.775-4.035 3.868-2.182 6.152-4.508 6.868-7 .724-2.526 1.082-8.44 1.082-17.79v-81.905c0-11.843-.549-19.779-1.639-23.815-1.114-4.003-2.833-6.593-5.22-7.743-2.396-1.135-7.704-1.703-15.94-1.703V891h45.368l91.095 120.863v-92.381c0-6.825-.7-11.612-2.093-14.353-1.401-2.733-4.266-4.899-8.571-6.49-4.313-1.605-9.486-2.397-15.542-2.397V891H1124v5.242c-6.502.528-11.634 1.79-15.383 3.772-3.732 1.966-6.111 4.348-7.138 7.097-1.019 2.789-1.528 7.472-1.528 14.08V1049h-4.878M870 446.992C870 593.894 750.913 713 604.012 713 457.095 713 338 593.894 338 446.992 338 300.098 457.095 181 604.012 181 750.912 181 870 300.098 870 446.992" fill="#0B0B09"/>
    <path d="M690.729 533.345V376.04c0-12.816.987-21.514 2.946-26.07-4.367.319-7.481 1.55-9.327 3.669-1.863 2.11-3.002 5.044-3.444 8.794-.433 3.75-.65 9.753-.65 18.012v157.136c0 7.827-.795 13.175-2.368 16.053-1.59 2.879-4.84 5.677-9.745 8.395h5.724c7.537 0 12.216-2.143 14.079-6.444 1.846-4.285 2.785-11.696 2.785-22.241zM489.593 349.97h-6.06c6.767 2.598 12.08 6.22 15.957 10.833 3.87 4.62 7.827 11.824 11.864 21.602l75.773 179.625c2.408-4.341 3.612-8.147 3.612-11.409 0-3.038-1.204-7.387-3.612-13.039l-65.13-157.464c-4.037-10.321-8.315-17.924-12.842-22.817-4.535-4.893-11.053-7.33-19.562-7.33zm-12.762 212.06h34.523c-3.925-2.063-7.112-4.917-9.568-8.562-2.448-3.638-4.286-7.9-5.482-12.792a32.452 32.452 0 0 1-7.12 11.816c-3.219 3.422-7.336 6.604-12.353 9.538zm128.958-46.777L677.308 341H748v8.97c-11.013.104-18.759 1.52-23.23 4.237-4.478 2.71-7.095 6.628-7.866 11.737-.762 5.108-1.14 14.502-1.14 28.197v140.835c0 7.163.956 12.607 2.866 16.293 1.902 3.694 4.985 6.284 9.247 7.747 4.254 1.463 10.964 2.47 20.123 3.014V571H642.448v-8.97c10.475-.104 18.06-1.407 22.748-3.91 4.695-2.502 7.48-5.844 8.347-10.025.867-4.181 1.309-11.113 1.309-20.786V370.013L593.516 571h-9.495l-80.349-194.631v133.503c0 14.998 2.858 26.71 8.59 35.13 5.722 8.418 15.242 14.094 28.55 17.028V571H458v-8.97c11.679-1.191 20.685-5.732 27.01-13.615 6.333-7.867 9.488-18.924 9.488-33.162V363.985c-4.471-4.893-9.817-8.53-16.038-10.921-6.212-2.39-13.035-3.422-20.46-3.094V341h74.802l72.987 174.253z" fill="#FFFEF4"/>
    <path d="M603.008 163.094C445.908 163.094 318.11 290.9 318.11 448c0 157.1 127.798 284.89 284.898 284.89C760.1 732.89 887.89 605.1 887.89 448c0-157.1-127.79-284.906-284.882-284.906zm0 581.906C439.233 745 306 611.751 306 448c0-163.767 133.233-297 297.008-297C766.768 151 900 284.233 900 448c0 163.751-133.233 297-296.992 297z" fill="#0B0B09"/>
  </symbol>
  <symbol id="default" viewBox="0 0 1200 1200">
    <path d="M867 598.992C867 745.894 747.913 865 601.012 865 454.095 865 335 745.894 335 598.992 335 452.098 454.095 333 601.012 333 747.912 333 867 452.098 867 598.992" fill="#0B0B09"/>
    <path d="M687.729 685.345V528.04c0-12.816.987-21.514 2.946-26.07-4.367.319-7.481 1.55-9.327 3.669-1.863 2.11-3.002 5.044-3.444 8.794-.433 3.75-.65 9.753-.65 18.012v157.136c0 7.827-.795 13.175-2.368 16.053-1.59 2.879-4.84 5.677-9.745 8.395h5.724c7.537 0 12.216-2.143 14.079-6.444 1.846-4.285 2.785-11.696 2.785-22.241zM486.593 501.97h-6.06c6.767 2.598 12.08 6.22 15.957 10.833 3.87 4.62 7.827 11.824 11.864 21.602l75.773 179.625c2.408-4.341 3.612-8.147 3.612-11.409 0-3.038-1.204-7.387-3.612-13.039l-65.13-157.464c-4.037-10.321-8.315-17.924-12.842-22.817-4.535-4.893-11.053-7.33-19.562-7.33zm-12.762 212.06h34.523c-3.925-2.063-7.112-4.917-9.568-8.562-2.448-3.638-4.286-7.9-5.482-12.792a32.452 32.452 0 0 1-7.12 11.816c-3.219 3.422-7.336 6.604-12.353 9.538zm128.958-46.777L674.308 493H745v8.97c-11.013.104-18.759 1.52-23.23 4.237-4.478 2.71-7.095 6.628-7.866 11.737-.762 5.108-1.14 14.502-1.14 28.197v140.835c0 7.163.956 12.607 2.866 16.293 1.902 3.694 4.985 6.284 9.247 7.747 4.254 1.463 10.964 2.47 20.123 3.014V723H639.448v-8.97c10.475-.104 18.06-1.407 22.748-3.91 4.695-2.502 7.48-5.844 8.347-10.025.867-4.181 1.309-11.113 1.309-20.786V522.013L590.516 723h-9.495l-80.349-194.631v133.503c0 14.998 2.858 26.71 8.59 35.13 5.722 8.418 15.242 14.094 28.55 17.028V723H455v-8.97c11.679-1.191 20.685-5.732 27.01-13.615 6.333-7.867 9.488-18.924 9.488-33.162V515.985c-4.471-4.893-9.817-8.53-16.038-10.921-6.212-2.39-13.035-3.422-20.46-3.094V493h74.802l72.987 174.253z" fill="#FFFEF4"/>
    <path d="M600.008 315.094C442.908 315.094 315.11 442.9 315.11 600c0 157.1 127.798 284.89 284.898 284.89C757.1 884.89 884.89 757.1 884.89 600c0-157.1-127.79-284.906-284.882-284.906zm0 581.906C436.233 897 303 763.751 303 600c0-163.767 133.233-297 297.008-297C763.768 303 897 436.233 897 600c0 163.751-133.233 297-296.992 297z" fill="#0B0B09"/>
  </symbol>
</svg>
