<svg version="1.1" xmlns="http://www.w3.org/2000/svg">
  <symbol id="with-text" viewBox="0 0 1200 1030">
    <path d="M119 995.451L183.6 849H238v6.007h-6.54c-8.716 0-14.43.724-17.128 2.152-2.706 1.447-4.513 4.13-5.43 8.031-.918 3.92-1.368 13.223-1.368 27.93v86.8c0 13.938.35 23.04 1.037 27.363.706 4.304 2.468 7.5 5.302 9.596 2.826 2.07 8.257 3.123 16.284 3.123H238V1026h-84.737v-5.998h6.275c7.495 0 12.706-.961 15.632-2.875 2.908-1.905 4.789-4.89 5.614-8.929.826-4.056 1.248-13.47 1.248-28.277V867.287L111.808 1026h-6.146L34.915 867.287V970.91c0 14.194.44 23.864 1.312 28.974.871 5.146 3.568 9.651 8.1 13.516 4.54 3.891 10.898 6.07 19.1 6.602V1026H0v-5.998c7.587-.44 13.751-2.51 18.512-6.19 4.743-3.709 7.642-8.26 8.688-13.645 1.046-5.393 1.578-15.402 1.578-30.026V893.12c0-14.093-.422-23.196-1.257-27.289-.817-4.075-2.56-6.914-5.23-8.48-2.66-1.547-8.476-2.344-17.447-2.344H0V849h54.005L119 995.451M449.71 970.91H456l-3.798 55.09H305v-5.998h3.669c8.828 0 14.529-1.163 17.104-3.526 2.584-2.344 4.22-5.329 4.92-8.946.698-3.608 1.048-12.802 1.048-27.61v-86.8c0-13.49-.377-22.353-1.113-26.63-.745-4.258-2.455-7.234-5.113-8.937-2.666-1.703-8.276-2.546-16.846-2.546V849h127.009l4.202 44.12h-6.16c-2.796-12.354-6.226-21.126-10.29-26.29-4.065-5.184-8.893-8.462-14.484-9.8-5.59-1.345-14.602-2.023-27.007-2.023h-24.635v74.284h18.87c8.653 0 14.703-.751 18.151-2.235 3.458-1.474 5.73-3.7 6.824-6.703 1.094-3.003 1.636-8.873 1.636-17.563h6.161v60.575h-6.16c0-9.854-.837-16.447-2.493-19.79-1.664-3.342-4.082-5.53-7.273-6.528-3.191-.998-8.58-1.502-16.184-1.502h-19.532v41.894c0 20.97 1.352 33.323 4.055 37.005 2.704 3.708 10.005 5.558 21.895 5.558h13.232c9.352 0 17.049-1.181 23.081-3.599 6.023-2.39 11.77-7.307 17.233-14.734 5.462-7.445 9.765-17.7 12.91-30.759M677 973.914L675.688 1026H525v-5.998h5.24c7.58 0 12.838-.961 15.756-2.875 2.918-1.905 4.79-4.89 5.625-8.929.826-4.056 1.239-13.47 1.239-28.277V893.12c0-14.093-.413-23.196-1.239-27.289-.835-4.075-2.578-6.914-5.23-8.48-2.662-1.547-8.489-2.344-17.463-2.344H525V849h85.158v6.007h-7.855c-8.718 0-14.425.724-17.133 2.152-2.697 1.447-4.514 4.13-5.423 8.031-.917 3.92-1.376 13.223-1.376 27.93v92.689c0 12.783.348 20.796 1.046 24.02.697 3.214 2.588 5.704 5.69 7.508 3.092 1.777 9.745 2.665 19.949 2.665h13.48c10.893 0 18.987-.961 24.263-2.875 5.277-1.905 10.287-6.09 15.04-12.527 4.763-6.438 9.085-16.667 13.022-30.686H677M770.958 937.738c0 28.533 5.677 49.941 17.06 64.253 11.375 14.303 28.436 21.463 51.184 21.463 19.959 0 35.736-7.16 47.34-21.463 11.584-14.312 17.39-35.629 17.39-63.996 0-27.568-5.714-48.71-17.134-63.39-11.41-14.715-27.976-22.06-49.679-22.06-21.363 0-37.726 7.161-49.1 21.528-11.384 14.34-17.061 35.574-17.061 63.665zM741 936.83c0-27.413 9.163-49.39 27.463-65.97C786.78 854.29 809.61 846 836.982 846c27.637 0 50.715 8.198 69.234 24.612C924.745 887.008 934 909.381 934 937.738c0 27.486-8.87 49.73-26.61 66.74-17.74 17.012-41.084 25.522-70.014 25.522-28.16 0-51.265-8.51-69.299-25.521C750.035 987.468 741 964.92 741 936.829zM1166.596 1030l-125.64-165.858v122.794c0 10.18.506 16.89 1.508 20.095 1.01 3.231 3.869 6.188 8.592 8.87 4.714 2.71 11.781 4.056 21.228 4.056v5.997H1006v-5.997c8.473-.595 14.924-2.142 19.372-4.623 4.466-2.5 7.103-5.163 7.93-8.02.836-2.893 1.25-9.667 1.25-20.378v-93.828c0-13.568-.634-22.658-1.893-27.281-1.287-4.587-3.272-7.553-6.029-8.871-2.766-1.3-8.895-1.95-18.406-1.95V849h52.39l105.192 138.458v-105.83c0-7.818-.809-13.302-2.417-16.442-1.617-3.131-4.926-5.612-9.897-7.434-4.98-1.84-10.954-2.746-17.947-2.746V849H1200v6.006c-7.508.604-13.435 2.05-17.763 4.32-4.31 2.253-7.058 4.98-8.243 8.13-1.177 3.195-1.765 8.56-1.765 16.13V1030h-5.633M906 340.49C906 508.656 769.676 645 601.514 645 433.333 645 297 508.655 297 340.49 297 172.337 433.333 36 601.514 36 769.676 36 906 172.336 906 340.49" fill="#0B0B09"/>
    <path d="M700.632 439.778V259.221c0-14.71 1.127-24.694 3.362-29.925-4.984.367-8.538 1.78-10.646 4.212-2.125 2.423-3.426 5.79-3.93 10.094-.495 4.304-.742 11.196-.742 20.675v180.365c0 8.984-.907 15.123-2.703 18.427-1.814 3.303-5.524 6.515-11.122 9.635h6.532c8.603 0 13.944-2.46 16.07-7.396 2.107-4.919 3.179-13.426 3.179-25.53zM471.06 229.296h-6.917c7.723 2.982 13.788 7.14 18.213 12.434 4.416 5.304 8.933 13.572 13.541 24.795l86.486 206.179c2.748-4.983 4.123-9.351 4.123-13.095 0-3.487-1.375-8.48-4.123-14.967l-74.337-180.741c-4.609-11.847-9.492-20.574-14.659-26.19-5.176-5.616-12.616-8.415-22.327-8.415zm-14.567 243.408h39.404c-4.48-2.368-8.117-5.644-10.92-9.828-2.795-4.175-4.893-9.067-6.258-14.683-1.75 5.12-4.461 9.645-8.126 13.563-3.674 3.928-8.374 7.58-14.1 10.948zm147.19-53.692L685.314 219H766v10.296c-12.57.12-21.41 1.744-26.514 4.864-5.112 3.11-8.099 7.607-8.978 13.47-.87 5.865-1.301 16.647-1.301 32.366V441.65c0 8.223 1.09 14.472 3.27 18.702 2.172 4.24 5.69 7.213 10.555 8.892 4.855 1.68 12.515 2.836 22.968 3.46V483H645.525v-10.296c11.956-.12 20.613-1.615 25.964-4.487 5.36-2.873 8.538-6.708 9.528-11.508.99-4.8 1.493-12.755 1.493-23.859V252.302L589.676 483h-10.839L487.13 259.597v153.24c0 17.214 3.261 30.658 9.803 40.32 6.532 9.664 17.397 16.18 32.587 19.547V483H435v-10.296c13.33-1.367 23.61-6.58 30.829-15.628 7.228-9.03 10.829-21.72 10.829-38.064v-173.63c-5.103-5.615-11.205-9.79-18.305-12.535-7.091-2.743-14.879-3.927-23.353-3.55V219h85.377l83.307 200.012z" fill="#FFFEF4"/>
    <path d="M601.51 13.865c-180.11 0-326.626 146.525-326.626 326.635 0 180.11 146.515 326.616 326.625 326.616 180.1 0 326.607-146.506 326.607-326.616 0-180.11-146.506-326.635-326.607-326.635zm0 667.135C413.745 681 261 528.235 261 340.5 261 152.746 413.746 0 601.51 0 789.253 0 942 152.746 942 340.5 942 528.235 789.254 681 601.51 681z" fill="#0B0B09"/>
  </symbol>
  <symbol id="default" viewBox="0 0 1200 1200">
    <path d="M1137 600.984C1137 897.549 896.587 1138 600.024 1138 303.43 1138 63 897.55 63 600.984 63 304.434 303.43 64 600.024 64 896.587 64 1137 304.435 1137 600.984" fill="#0B0B09"/>
    <path d="M774.668 774.871V456.843c0-25.91 1.988-43.495 5.932-52.708-8.793.647-15.065 3.136-18.783 7.42-3.75 4.266-6.045 10.198-6.934 17.779-.873 7.58-1.31 19.719-1.31 36.415v317.689c0 15.823-1.6 26.637-4.768 32.455-3.2 5.82-9.747 11.476-19.624 16.972h11.526c15.178 0 24.602-4.332 28.352-13.028 3.717-8.663 5.609-23.647 5.609-44.966zM369.623 404.135h-12.204c13.626 5.253 24.327 12.575 32.134 21.901 7.791 9.343 15.76 23.906 23.891 43.673l152.591 363.156c4.85-8.777 7.274-16.47 7.274-23.065 0-6.142-2.425-14.935-7.274-26.362L434.878 465.087c-8.13-20.867-16.746-36.238-25.863-46.13-9.133-9.892-22.258-14.822-39.392-14.822zm-25.702 428.73h69.523c-7.904-4.17-14.321-9.94-19.268-17.311-4.93-7.354-8.631-15.97-11.04-25.861-3.087 9.019-7.872 16.987-14.338 23.89-6.482 6.917-14.774 13.35-24.877 19.282zm259.696-94.571L747.641 386H890v18.135c-22.177.21-37.776 3.071-46.78 8.567-9.02 5.479-14.289 13.399-15.84 23.727-1.536 10.329-2.296 29.32-2.296 57.008v284.731c0 14.483 1.924 25.49 5.77 32.941 3.832 7.468 10.039 12.704 18.622 15.662 8.567 2.958 22.08 4.995 40.524 6.094V851H677.44v-18.135c21.094-.21 36.37-2.845 45.81-7.904 9.455-5.06 15.064-11.815 16.81-20.269 1.746-8.453 2.635-22.467 2.635-42.024V444.656L578.902 851H559.78L397.975 457.506v269.91c0 30.322 5.754 54.001 17.296 71.021 11.525 17.02 30.696 28.496 57.496 34.428V851H306v-18.135c23.52-2.408 41.655-11.59 54.393-27.526 12.754-15.905 19.106-38.258 19.106-67.045V432.469c-9.003-9.892-19.769-17.246-32.296-22.079-12.511-4.832-26.251-6.918-41.203-6.255V386h150.635l146.982 352.294z" fill="#FFFEF4"/>
    <path d="M600.016 24.432C282.642 24.432 24.464 282.626 24.464 600c0 317.374 258.178 575.536 575.552 575.536 317.358 0 575.52-258.162 575.52-575.536 0-317.374-258.162-575.568-575.52-575.568zm0 1175.568C269.156 1200 0 930.81 0 600 0 269.157 269.157 0 600.016 0 930.843 0 1200 269.157 1200 600c0 330.81-269.157 600-599.984 600z" fill="#0B0B09"/>
  </symbol>
</svg>
